/* XPM */
static char *taccellabel[] = {
/* columns rows colors chars-per-pixel */
"23 23 2 1",
"  c black",
". c None",
/* pixels */
".......................",
".......................",
".......................",
".......................",
"..............   .. ...",
".............. ...  ...",
"........ ..... .... ...",
".......  .....  ... ...",
"......    .... .... ...",
"......    .... ...   ..",
".....      ............",
".....  .   ............",
"....  ..    ...........",
"....        ...........",
"....        ...........",
".... ....   ...........",
"..   ....     .........",
"..    ..      .........",
".......................",
".......................",
".......................",
".......................",
"......................."
};
