/* XPM */
static char * talignment_xpm[] = {
"23 23 5 1",
" 	c None",
".	c #000000",
"+	c #FFFFFF",
"@	c #D6D6D6",
"#	c #7B7B7B",
"                       ",
"             .         ",
"            ...        ",
"           . . .       ",
"             .         ",
"             .         ",
"           . . .       ",
"            ...        ",
"             .         ",
"         +++++++++.    ",
"         +@@@@@@@#.    ",
"   .  .  +@@@@@@@#.    ",
"  .    . +@@@@@@@#.    ",
" ........+@@@@@@@#.    ",
"  .    . +@@@@@@@#.    ",
"   .  .  +@@@@@@@#.    ",
"         +########.    ",
"         ..........    ",
"                       ",
"                       ",
"                       ",
"                       ",
"                       "};
