/* XPM */
static char *tbutton[] = {
/* columns rows colors chars-per-pixel */
"23 23 5 1",
"  c black",
". c #7B7B7B7B7B7B",
"X c gray84",
"o c gray100",
"O c None",
/* pixels */
"OOOOOOOOOOOOOOOOOOOOOOO",
"OOOOOOOOOOOOOOOOOOOOOOO",
"OOOOOOOOOOOOOOOOOOOOOOO",
"OOOOOOOOOOOOOOOOOOOOOOO",
"OOoooooooooooooooooo OO",
"OOoXXXXXXXXXXXXXXXX. OO",
"OOoXXXXXXXXXXXXXXXX. OO",
"OOoXXXXXXXXXXXXXXXX. OO",
"OOoXXXX  XX XX XXXX. OO",
"OOoXXX XX X X XXXXX. OO",
"OOoXXX XX X  XXXXXX. OO",
"OOoXXX XX X X XXXXX. OO",
"OOoXXX XX X XX XXXX. OO",
"OOoXXXX  XX XX XXXX. OO",
"OOoXXXXXXXXXXXXXXXX. OO",
"OOoXXXXXXXXXXXXXXXX. OO",
"OOoXXXXXXXXXXXXXXXX. OO",
"OOo................. OO",
"OO                   OO",
"OOOOOOOOOOOOOOOOOOOOOOO",
"OOOOOOOOOOOOOOOOOOOOOOO",
"OOOOOOOOOOOOOOOOOOOOOOO",
"OOOOOOOOOOOOOOOOOOOOOOO"
};
