/* XPM */
static char *tcheckbutton[] = {
/* columns rows colors chars-per-pixel */
"23 23 6 1",
"  c black",
". c #7B7B7D7D7B7B",
"X c #A4A4A5A5A4A4",
"o c #D5D5D2D2D5D5",
"O c gray100",
"+ c None",
/* pixels */
"+++++++++++++++++++++++",
"+++++++++++++++++++++++",
"+++++++++++++++++++++++",
"+++++++++++++++++++++++",
"+++++++++++++++++++++++",
"+++++XXXXXXXXXXXXX+++++",
"+++++X           O+++++",
"+++++X OOOOOOOOOoO+++++",
"+++++X OOOOOOO .oO+++++",
"+++++X OOOOOO  OoO+++++",
"+++++X OOOOO  OOoO+++++",
"+++++X O..O. OOOoO+++++",
"+++++X O  . .OOOoO+++++",
"+++++X OO.  OOOOoO+++++",
"+++++X OOOO OOOOoO+++++",
"+++++X OOOOOOOOOoO+++++",
"+++++X ooooooooooO+++++",
"+++++XOOOOOOOOOOOO+++++",
"+++++++++++++++++++++++",
"+++++++++++++++++++++++",
"+++++++++++++++++++++++",
"+++++++++++++++++++++++",
"+++++++++++++++++++++++"
};
