/* XPM */
static char *tcolorseldialog[] = {
/* columns rows colors chars-per-pixel */
"23 23 11 1",
"  c black",
". c #000000007B7B",
"X c #7B7B7B7B7B7B",
"o c blue",
"O c #000080800000",
"+ c cyan",
"@ c red",
"# c yellow",
"$ c gray84",
"% c gray100",
"& c None",
/* pixels */
"&&&&&&&&&&&&&&&&&&&&&&&",
"&&&&&&&&&&&&&&&&&&&&&&&",
"&&&&&&&&&&&&&&&&&&&&&&&",
"&&&&&&&&&&&&&&&&&&&&&&&",
"&&&&&&&&&&&&&&&&&&&&&&&",
"&&&XXXXXXXXXXXXXXXX&&&&",
"&&&X.@#...........X &&&",
"&&&X.+O.%%%....$ $X &&&",
"&&&XXXXXXXXXXXXXXXX &&&",
"&&&X%%%%%%%%%%%%%%X &&&",
"&&&X%%%%%%%%%%%%%%X &&&",
"&&&X%%@@@OOOooo%%%X &&&",
"&&&X%%@@@OOOooo%%%X &&&",
"&&&X%%@@@OOOooo%%%X &&&",
"&&&X%%@@@OOOooo%%%X &&&",
"&&&X%%%%%%%%%%%%%%X &&&",
"&&&X%%%%%%%%%%%%%%X &&&",
"&&&XXXXXXXXXXXXXXXX &&&",
"&&&&                &&&",
"&&&&&&&&&&&&&&&&&&&&&&&",
"&&&&&&&&&&&&&&&&&&&&&&&",
"&&&&&&&&&&&&&&&&&&&&&&&",
"&&&&&&&&&&&&&&&&&&&&&&&"
};
