/* XPM */
static char * tdbf_xpm[] = {
"22 23 52 1",
" 	c None",
".	c #080408",
"+	c #000000",
"@	c #000400",
"#	c #000408",
"$	c #C5C6C5",
"%	c #CDCECD",
"&	c #C5C2C5",
"*	c #CDCAD5",
"=	c #C5C6CD",
"-	c #BDBEBD",
";	c #CDC6CD",
">	c #CDCACD",
",	c #CDCEB4",
"'	c #C5CEB4",
")	c #BDBEC5",
"!	c #C5C2CD",
"~	c #C5CABD",
"{	c #C5C2BD",
"]	c #080C00",
"^	c #000010",
"/	c #000008",
"(	c #000410",
"_	c #000810",
":	c #C5CEC5",
"<	c #FFFFFF",
"[	c #FFFAFF",
"}	c #F6F2FF",
"|	c #F6FAFF",
"1	c #EEEEFF",
"2	c #F6F6FF",
"3	c #F6F6EE",
"4	c #EEEAFF",
"5	c #0861A4",
"6	c #FFF2FF",
"7	c #CDCEC5",
"8	c #296929",
"9	c #BDC2C5",
"0	c #000800",
"a	c #000C00",
"b	c #FFF6FF",
"c	c #BDC2CD",
"d	c #EEF6FF",
"e	c #BDBECD",
"f	c #F6FFFF",
"g	c #E6EEFF",
"h	c #EEE6FF",
"i	c #C5C6D5",
"j	c #080808",
"k	c #C5CAD5",
"l	c #080800",
"m	c #FFFAF6",
" .+++++++@+++@+#++@++ ",
" +$@%&*==-%;>,')!~,{+ ",
" @]++^^^/+@+++@(_/+@@ ",
" +:+<[}[<<>}<|<12[}<+ ",
" +3@<[[4[<$<}555556<@ ",
" +7@<5558<9<5555555<+ ",
" 03a<2}bb<c<55d|b55<+ ",
" +:+|5555<e<<ffg55520 ",
" +<#<[hb1[i<<2|5552<+ ",
" j$+|5555<k2|<555[[<+ ",
" +<#<[[1b<!<<<55[1<<+ ",
" l$+<55552=<}}55[<<<+ ",
" +|#<<2<<<)m<[2[<2<[+ ",
" +%+<[<2<[><[[55<<<[# ",
" ++j+++#////^+55+#++# ",
"                      ",
" 555  555  5555       ",
" 5  5 5  5 5          ",
" 5  5 555  555        ",
" 5  5 5  5 5          ",
" 5  5 5  5 5          ",
" 555  555  5          ",
"                      "};
