/* XPM */
static char *tentry[] = {
/* columns rows colors chars-per-pixel */
"23 23 5 1",
"  c black",
". c #7B7B7B7B7B7B",
"X c gray84",
"o c gray100",
"O c None",
/* pixels */
"OOOOOOOOOOOOOOOOOOOOOOO",
"OOOOOOOOOOOOOOOOOOOOOOO",
"OOOOOOOOOOOOOOOOOOOOOOO",
"O....................oO",
"O.                  XoO",
"O. oooooooooooooooooXoO",
"O. ooooooooooooooo oXoO",
"O. oooooooo oooooo oXoO",
"O. oooooooo oooooo oXoO",
"O. ooo   oo X  ooo oXoO",
"O. oo XoX o  o. oo oXoO",
"O. oooooo o ooo oo oXoO",
"O. ooo    o ooo oo oXoO",
"O. oo Xoo o ooo oo oXoO",
"O. oo Xoo o oo. oo oXoO",
"O. ooo    o    ooo oXoO",
"O. ooooooooooooooo oXoO",
"O. oooooooooooooooooXoO",
"O.XXXXXXXXXXXXXXXXXXXoO",
"OoooooooooooooooooooooO",
"OOOOOOOOOOOOOOOOOOOOOOO",
"OOOOOOOOOOOOOOOOOOOOOOO",
"OOOOOOOOOOOOOOOOOOOOOOO"
};
