/* XPM */
static char *teventbox[] = {
/* columns rows colors chars-per-pixel */
"23 23 6 1",
"  c black",
". c #7B7B7B7B7B7B",
"X c blue",
"o c gray84",
"O c gray100",
"+ c None",
/* pixels */
"+++++++++++++++++++++++",
"+++++++++++XO++++++++++",
"++++++++++XXO++++++++++",
"+++++++++XXO+++++++++++",
"++++++++XXO++++++++++++",
"+++++++++XXO+++++++++++",
"++++++++++XXO++++++++++",
"+++++++++++XXO+++++++++",
"++++OOOOOOXXOOOOOO ++++",
"++++OooooXXOooooo. ++++",
"++++OoooXXOoooooo. ++++",
"++++OooooXXOooooo. ++++",
"++++OoooooXXOoooo. ++++",
"++++OooooooXXOooo. ++++",
"++++Ooooooooooooo. ++++",
"++++Ooooooooooooo. ++++",
"++++Ooooooooooooo. ++++",
"++++O............. ++++",
"++++               ++++",
"+++++++++++++++++++++++",
"+++++++++++++++++++++++",
"+++++++++++++++++++++++",
"+++++++++++++++++++++++"
};
