/* XPM */
static char *texpander[] = {
/* columns rows colors chars-per-pixel */
"23 23 3 1",
"  c black",
". c gray100",
"X c None",
/* pixels */
"XXXXXXXXXXXXXXXXXXXXXXX",
"XXXXXXXXXXXXXXXXXXXXXXX",
"XXXXXXXXXXXXXXXXXXXXXXX",
"XXXXXXXXXXXXXXXXXXXXXXX",
"XXXXXXXXXXXXXXXXXXXXXXX",
"XXXXXXXXXXXXXXXXXXXXXXX",
"XXXXXXXXXXXXXXXXXXXXXXX",
"XX  XXXXXXXXXXXXXXXXXXX",
"XX . XXXXXXXXXXXXXXXXXX",
"XX .. XXXX   X XXXXXXXX",
"XX ... XXX X X XXXXXXXX",
"XX .... XX X X   X   XX",
"XX ... XXX   X X X XXXX",
"XX .. XXXX X X X X XXXX",
"XX . XXXXX X X   X   XX",
"XX  XXXXXXXXXXXXXXXXXXX",
"XXXXXXXXXXXXXXXXXXXXXXX",
"XXXXXXXXXXXXXXXXXXXXXXX",
"XXXXXXXXXXXXXXXXXXXXXXX",
"XXXXXXXXXXXXXXXXXXXXXXX",
"XXXXXXXXXXXXXXXXXXXXXXX",
"XXXXXXXXXXXXXXXXXXXXXXX",
"XXXXXXXXXXXXXXXXXXXXXXX"
};
