/* XPM */
static char *tfilechooserwidget[] = {
/* columns rows colors chars-per-pixel */
"23 23 5 1",
"  c black",
". c #7B7B7B7B7B7B",
"X c yellow",
"o c gray100",
"O c None",
/* pixels */
"OOOOOOOOOOOOOOOOOOOOOOO",
"OOOOOOOOOOOOOOOOOOOOOOO",
"OOOOOOOOOOOOOOOOOOOOOOO",
"OOOOOOOOOOOOOOOOOOOOOOO",
"OOOOOOOOOOOOOOOOOOOOOOO",
"OOOOOOOOOOOOOOOOOOOOOOO",
"OOO................OOOO",
"OOO.oooooooooooooo. OOO",
"OOO.oooooooooooooo. OOO",
"OOO.ooooo  ooooooo. OOO",
"OOO.oooo XX   oooo. OOO",
"OOO.oooo XXXXX ooo. OOO",
"OOO.oooo XXXXX ooo. OOO",
"OOO.oooo XXXXX ooo. OOO",
"OOO.oooo       ooo. OOO",
"OOO.oooooooooooooo. OOO",
"OOO.oooooooooooooo. OOO",
"OOO................ OOO",
"OOOO                OOO",
"OOOOOOOOOOOOOOOOOOOOOOO",
"OOOOOOOOOOOOOOOOOOOOOOO",
"OOOOOOOOOOOOOOOOOOOOOOO",
"OOOOOOOOOOOOOOOOOOOOOOO"
};
