/* XPM */
static char *tfilechooserdialog[] = {
/* columns rows colors chars-per-pixel */
"23 23 10 1",
"  c black",
". c #000000007B7B",
"X c #7B7B7B7B7B7B",
"o c green",
"O c cyan",
"+ c red",
"@ c yellow",
"# c gray84",
"$ c gray100",
"% c None",
/* pixels */
"%%%%%%%%%%%%%%%%%%%%%%%",
"%%%%%%%%%%%%%%%%%%%%%%%",
"%%%%%%%%%%%%%%%%%%%%%%%",
"%%%%%%%%%%%%%%%%%%%%%%%",
"%%%%%%%%%%%%%%%%%%%%%%%",
"%%%XXXXXXXXXXXXXXXX%%%%",
"%%%X.+@...........X %%%",
"%%%X.Oo.$$$....# #X %%%",
"%%%XXXXXXXXXXXXXXXX %%%",
"%%%X$$$$$$$$$$$$$$X %%%",
"%%%X$$$$$  $$$$$$$X %%%",
"%%%X$$$$ @@   $$$$X %%%",
"%%%X$$$$ @@@@@ $$$X %%%",
"%%%X$$$$ @@@@@ $$$X %%%",
"%%%X$$$$ @@@@@ $$$X %%%",
"%%%X$$$$       $$$X %%%",
"%%%X$$$$$$$$$$$$$$X %%%",
"%%%XXXXXXXXXXXXXXXX %%%",
"%%%%                %%%",
"%%%%%%%%%%%%%%%%%%%%%%%",
"%%%%%%%%%%%%%%%%%%%%%%%",
"%%%%%%%%%%%%%%%%%%%%%%%",
"%%%%%%%%%%%%%%%%%%%%%%%"
};
