/* XPM */
static char *tfixed[] = {
/* columns rows colors chars-per-pixel */
"23 23 5 1",
"  c black",
". c #7B7B7B7B7B7B",
"X c gray84",
"o c gray100",
"O c None",
/* pixels */
"OOOOOOOOOOOOOOOOOOOOOOO",
"Ooooooooooooooooooooo O",
"OoXXXXXXXXXXXXXXXXXX. O",
"OoXXXXXXXXXXXXXXXXXX. O",
"OoXooooo XXXXXXXXXXX. O",
"OoXoXXX. XXXXXXXXXXX. O",
"OoXoXXX. XXXXooooo X. O",
"OoXo.... XXXXoXXX. X. O",
"OoX      XXXXoXXX. X. O",
"OoXXXXXXXXXXXo.... X. O",
"OoXXXXXXXXXXX      X. O",
"OoXXXXXXXXXXXXXXXXXX. O",
"OoXXXXooooo XXXXXXXX. O",
"OoXXXXoXXX. XXXXXXXX. O",
"OoXXXXoXXX. XXXXXXXX. O",
"OoXXXXo.... XXXXXXXX. O",
"OoXXXX      XXXXXXXX. O",
"OoXXXXXXXXXXXXXXXXXX. O",
"OoXXXXXXXXXXXXXXXXXX. O",
"OoXXXXXXXXXXXXXXXXXX. O",
"Oo................... O",
"O                     O",
"OOOOOOOOOOOOOOOOOOOOOOO"
};
