/* XPM */
static char *tfontseldialog[] = {
/* columns rows colors chars-per-pixel */
"23 23 12 1",
"  c black",
". c #000000007B7B",
"X c #7B7B7B7B7B7B",
"o c #000080800000",
"O c cyan",
"+ c red",
"@ c yellow",
"# c gray61",
"$ c gray84",
"% c gray87",
"& c gray100",
"* c None",
/* pixels */
"***********************",
"***********************",
"***********************",
"***********************",
"***********************",
"***XXXXXXXXXXXXXXXX****",
"***X.+@...........X ***",
"***X.Oo.&&&....$ $X ***",
"***XXXXXXXXXXXXXXXX ***",
"***X&&&&&&&&&&&&&&X ***",
"***X&&&&&&&#  $&&&X ***",
"***X&&&&&&%  &#&&&X ***",
"***X&&&&&   &&&&&&X ***",
"***X&&&&&&   &&&&&X ***",
"***X&&& %  &&&&&&&X ***",
"***X&&&$  #&&&&&&&X ***",
"***X&&&&&&&&&&&&&&X ***",
"***XXXXXXXXXXXXXXXX ***",
"****                ***",
"***********************",
"***********************",
"***********************",
"***********************"
};
