/* XPM */
static char *tfontsel[] = {
/* columns rows colors chars-per-pixel */
"23 23 7 1",
"  c black",
". c #7B7B7B7B7B7B",
"X c gray61",
"o c gray84",
"O c gray87",
"+ c gray100",
"@ c None",
/* pixels */
"@@@@@@@@@@@@@@@@@@@@@@@",
"@@@@@@@@@@@@@@@@@@@@@@@",
"@@@@@@@@@@@@@@@@@@@@@@@",
"@@@@@@@@@@@@@@@@@@@@@@@",
"@@@@@@@@@@@@@@@@@@@@@@@",
"@@@@@@@@@@@@@@@@@@@@@@@",
"@@@................@@@@",
"@@@.++++++++++++++. @@@",
"@@@.++++++++++++++. @@@",
"@@@.+++++++X  o+++. @@@",
"@@@.++++++O  +X+++. @@@",
"@@@.+++++   ++++++. @@@",
"@@@.++++++   +++++. @@@",
"@@@.+++ O  +++++++. @@@",
"@@@.+++o  X+++++++. @@@",
"@@@.++++++++++++++. @@@",
"@@@.++++++++++++++. @@@",
"@@@................ @@@",
"@@@@                @@@",
"@@@@@@@@@@@@@@@@@@@@@@@",
"@@@@@@@@@@@@@@@@@@@@@@@",
"@@@@@@@@@@@@@@@@@@@@@@@",
"@@@@@@@@@@@@@@@@@@@@@@@"
};
