/* XPM */
static char *thbox[] = {
/* columns rows colors chars-per-pixel */
"23 23 5 1",
"  c black",
". c #7B7B7B7B7B7B",
"X c gray84",
"o c gray100",
"O c None",
/* pixels */
"OOOOOOOOOOOOOOOOOOOOOOO",
"Ooooooo oooooo oooooo O",
"OoXXXX. oXXXX. oXXXX. O",
"OoXXXX. oXXXX. oXXXX. O",
"OoXXXX. oXXXX. oXXXX. O",
"OoXXXX. oXXXX. oXXXX. O",
"OoXXXX. oXXXX. oXXXX. O",
"OoXXXX. oXXXX. oXXXX. O",
"OoXXXX. oXXXX. oXXXX. O",
"OoXXXX. oXXXX. oXXXX. O",
"OoXXXX. oXXXX. oXXXX. O",
"OoXXXX. oXXXX. oXXXX. O",
"OoXXXX. oXXXX. oXXXX. O",
"OoXXXX. oXXXX. oXXXX. O",
"OoXXXX. oXXXX. oXXXX. O",
"OoXXXX. oXXXX. oXXXX. O",
"OoXXXX. oXXXX. oXXXX. O",
"OoXXXX. oXXXX. oXXXX. O",
"OoXXXX. oXXXX. oXXXX. O",
"OoXXXX. oXXXX. oXXXX. O",
"Oo..... o..... o..... O",
"O                     O",
"OOOOOOOOOOOOOOOOOOOOOOO"
};
