/* XPM */
static char *thscrollbar[] = {
/* columns rows colors chars-per-pixel */
"23 23 5 1",
"  c black",
". c gray61",
"X c gray84",
"o c gray100",
"O c None",
/* pixels */
"OOOOOOOOOOOOOOOOOOOOOOO",
"OOOOOOOOOOOOOOOOOOOOOOO",
"OOOOOOOOOOOOOOOOOOOOOOO",
"OOOOOOOOOOOOOOOOOOOOOOO",
"OOOOOOOOOOOOOOOOOOOOOOO",
"OOOOOOOOOOOOOOOOOOOOOOO",
"OOOOOOOOOOOOOOOOOOOOOOO",
"O                     O",
"O ...o .oooooo .oo...oO",
"O ..oX .oXXXXX .oXo..oO",
"O .oXX .oXXXXX .oXXo.oO",
"O oXXX .oXXXXX .oXXX oO",
"O . XX .oXXXXX .oXX .oO",
"O .. X .oXXXXX .oX ..oO",
"O ...  .       .o ...oO",
"OoooooooooooooooooooooO",
"OOOOOOOOOOOOOOOOOOOOOOO",
"OOOOOOOOOOOOOOOOOOOOOOO",
"OOOOOOOOOOOOOOOOOOOOOOO",
"OOOOOOOOOOOOOOOOOOOOOOO",
"OOOOOOOOOOOOOOOOOOOOOOO",
"OOOOOOOOOOOOOOOOOOOOOOO",
"OOOOOOOOOOOOOOOOOOOOOOO"
};
