/* XPM */
static char * tibdatabase_xpm[] = {
"23 23 5 1",
" 	c None",
".	c #808080",
"+	c #FFFFFF",
"@	c #000000",
"#	c #000080",
"       ................",
"       .+.++++++++++++@",
"     .................@",
"     .+.++++++++++++@+@",
"   .................@+@",
"   .+.++++++++++++@+@+@",
"   ...............@+@+@",
"   .+.++++.+++++++@+@+@",
"   .+.+##+.+#####+@+@+@",
"   .+.++++.+++++++@+@+@",
"   .+.+##+.+#####+@+@@@",
"   .+.++++.+++++++@+@  ",
"   .+.+##+.+####++@@@  ",
"   .+.++++.+++++++@    ",
"   .@@@@@@@@@@@@@@@    ",
"## ####                ",
"## #####               ",
"## ## ##               ",
"## ####                ",
"## #####               ",
"## ## ##               ",
"## #####               ",
"## ####                "};
