/* XPM */
static char * tibquery_xpm[] = {
"23 23 6 1",
" 	c None",
".	c #808080",
"+	c #FFFFFF",
"@	c #000000",
"#	c #D4D0C8",
"$	c #000080",
" ..................... ",
" .++.++++++++++++++++@ ",
" .+#.################@ ",
" ....................@ ",
" .+#.++++++.+++++++++@ ",
" .+#.++++++.++$$$$$++@ ",
" .+#.+$$$$+.+$$$$$$$+@ ",
" .+#.++++++.+$$+++$$+@ ",
" .+#.+$$$$+.+++++$$$+@ ",
" .+#.++++++.++++$$$++@ ",
" .+#.+$$$$+.+++$$$+++@ ",
" .+#.++++++.+++$$++++@ ",
" .+#.++++++.+++$$++++@ ",
" .@@@@@@@@@@@@++++@@@@ ",
"              +$$+     ",
"$$ $$$$       +$$+     ",
"$$ $$$$$      ++++     ",
"$$ $$ $$               ",
"$$ $$$$                ",
"$$ $$$$$               ",
"$$ $$ $$               ",
"$$ $$$$$               ",
"$$ $$$$                "};
