/* XPM */
static char *timage[] = {
/* columns rows colors chars-per-pixel */
"23 23 11 1",
"  c black",
". c #00007B7B0000",
"X c #7B7B7B7B7B7B",
"o c blue",
"O c #000080800000",
"+ c cyan",
"@ c yellow",
"# c gray84",
"$ c gray87",
"% c gray100",
"& c None",
/* pixels */
"&&&&&&&&&&&&&&&&&&&&&&&",
"&&&&&&&&&&&&&&&&&&&&&&&",
"&&&&&&&&&&&&&&&&&&&&&&&",
"&&&&&&&&&&&&&&&&&&&&&&&",
"&&                    &",
"&& +++++$$$%+++++++++ &",
"&& +%%%++$$++%+++XX++ &",
"&& +++++++$+++++X@@X+ &",
"&& ++%%++++XX+++X@@X+ &",
"&& +++++++ XXX%++XX++ &",
"&& %+++++XXXXXX++++%+ &",
"&& +++++        +++++ &",
"&& +++++ ###### +++++ &",
"&& +++++ #o##o# +++++ &",
"&& ..... ###### ..... &",
"&& OOOOO ##oo## OOOOO &",
"&& OOOOO ##oo## OOOOO &",
"&& OOOOO        OOOOO &",
"&& OOOOOOOOOOOOOOOOOO &",
"&&                    &",
"&&&&&&&&&&&&&&&&&&&&&&&",
"&&&&&&&&&&&&&&&&&&&&&&&",
"&&&&&&&&&&&&&&&&&&&&&&&"
};
