/* XPM */
static char *tlayout[] = {
/* columns rows colors chars-per-pixel */
"23 23 5 1",
"  c black",
". c #7B7B7B7B7B7B",
"X c gray84",
"o c gray100",
"O c None",
/* pixels */
"OOOOOOOOOOOOOOOOOOOOOOO",
"OoooooooooooooooooooooO",
"OoXXXXXXXXXXXXXoXXXXX O",
"OoXoooooXXXXXXXoXX XX O",
"OoXoXXX.XXXXXXXoX   X O",
"OoXoXXX.XoooooXoXXXXX O",
"OoXo....XoXXX.Xo      O",
"OoXXXXXXXoXXX.Xoooooo O",
"OoXXXXXXXo....XooXXXX O",
"OoXXXXXXXXXXXXXooXXXX O",
"OoXXXoooooXXXXXoooooo O",
"OoXXXoXXX.XXXXXoXXXXX O",
"OoXXXoXXX.XXXXXoX   X O",
"OoXXXo....XXXXXoXX XX O",
"OoXXXXXXXXXXXXXoXXXXX O",
"Oooooooooooooooo      O",
"OoXXXX ooo XXXX XXXXXXO",
"OoXX X oXX X XX XXXXXXO",
"OoX  X oXX X  X XXXXXXO",
"OoXX X oXX X XX XXXXXXO",
"OoXXXX oXX XXXX XXXXXXO",
"Oo              XXXXXXO",
"OOOOOOOOOOOOOOOOOOOOOOO"
};
