/* XPM */
static char * tmemdataset_xpm[] = {
"23 23 52 1",
" 	c None",
".	c #080408",
"+	c #000000",
"@	c #000400",
"#	c #000408",
"$	c #C5C6C5",
"%	c #CDCECD",
"&	c #C5C2C5",
"*	c #CDCAD5",
"=	c #C5C6CD",
"-	c #BDBEBD",
";	c #CDC6CD",
">	c #CDCACD",
",	c #CDCEB4",
"'	c #C5CEB4",
")	c #BDBEC5",
"!	c #C5C2CD",
"~	c #C5CABD",
"{	c #C5C2BD",
"]	c #080C00",
"^	c #000010",
"/	c #000008",
"(	c #000410",
"_	c #000810",
":	c #C5CEC5",
"<	c #FFFFFF",
"[	c #FFFAFF",
"}	c #F6F2FF",
"|	c #F6FAFF",
"1	c #EEEEFF",
"2	c #F6F6EE",
"3	c #EEEAFF",
"4	c #FFF2FF",
"5	c #CDCEC5",
"6	c #296929",
"7	c #BDC2C5",
"8	c #DE1C10",
"9	c #000800",
"0	c #000C00",
"a	c #F6F6FF",
"b	c #FFF6FF",
"c	c #BDC2CD",
"d	c #EEF6FF",
"e	c #BDBECD",
"f	c #F6FFFF",
"g	c #E6EEFF",
"h	c #EEE6FF",
"i	c #C5C6D5",
"j	c #080808",
"k	c #C5CAD5",
"l	c #080800",
"m	c #FFFAF6",
" .+++++++@+++@+#++@++  ",
" +$@%&*==-%;>,')!~,{+  ",
" @]++^^^/+@+++@(_/+@@  ",
" +:+<[}[<<>}<|<1<[}<+  ",
" +2@<[[3[<$<<+++++4<@  ",
" +5@<6+6+<7<+88888+<+  ",
" 920<a}bb<c<+8d|b8+<+  ",
" +:+|6++6<e<<ffg88+a9  ",
" +<#<[hb1[i<<a|88+a<+  ",
" j$+|6+++<ka|<88+[[<+  ",
" +<#<[[1b<!<<<8+[1<<+  ",
" l$+<6++6a=<}}8+[<<<+  ",
" +|#<<a<<<)m<[a[<a<[+  ",
" +%+<[<a<[><[[8+<<<[#  ",
" ++j+++#////^+8++#++#  ",
"                       ",
"   +   + ++++ +   +    ",
"   ++ ++ +    ++ ++    ",
"   + + + ++   + + +    ",
"   +   + +    +   +    ",
"   +   + +    +   +    ",
"   +   + ++++ +   +    ",
"                       "};
