/* XPM */
static char *tmenuitem[] = {
/* columns rows colors chars-per-pixel */
"23 23 2 1",
"  c black",
". c None",
/* pixels */
".......................",
".......................",
".......................",
".......................",
".......................",
".......................",
".......................",
".......................",
".............. ........",
"............  .........",
"..........    .........",
"........     ..........",
".........    ..........",
".........   ...........",
"........ .. ...........",
"....... ...............",
".......................",
".......................",
".......................",
".......................",
".......................",
".......................",
"......................."
};
