/* XPM */
static char *tnotebook[] = {
/* columns rows colors chars-per-pixel */
"23 23 5 1",
"  c black",
". c #7B7B7B7B7B7B",
"X c gray84",
"o c gray100",
"O c None",
/* pixels */
"OOOOOOOOOOOOOOOOOOOOOOO",
"OOOOOOOOOOOOOOOOOOOOOOO",
"OOOOOOOOOOOOOOOOOOOOOOO",
"OOOOOOOOOOOOOOOOOOOOOOO",
"OOoooooo.oooo.oooo.OOOO",
"OOoXXXXX.X.X..X.X..OOOO",
"OOoXXXXX..X.X..X.X.OOOO",
"OOoXXXXX.X.X..X.X..OOOO",
"OOoXXXXX.ooooooooooo OO",
"OOoXXXXXXXXXXXXXXXX. OO",
"OOoXXXXXXXXXXXXXXXX. OO",
"OOoXXXXXXXXXXXXXXXX. OO",
"OOoXXXXXXXXXXXXXXXX. OO",
"OOoXXXXXXXXXXXXXXXX. OO",
"OOoXXXXXXXXXXXXXXXX. OO",
"OOoXXXXXXXXXXXXXXXX. OO",
"OOoXXXXXXXXXXXXXXXX. OO",
"OOo................. OO",
"OO                   OO",
"OOOOOOOOOOOOOOOOOOOOOOO",
"OOOOOOOOOOOOOOOOOOOOOOO",
"OOOOOOOOOOOOOOOOOOOOOOO",
"OOOOOOOOOOOOOOOOOOOOOOO"
};
