/* XPM */
static char *toptionmenu[] = {
/* columns rows colors chars-per-pixel */
"23 23 5 1",
"  c black",
". c #7B7B7B7B7B7B",
"X c gray84",
"o c gray100",
"O c None",
/* pixels */
"OOOOOOOOOOOOOOOOOOOOOOO",
"OOOOOOOOOOOOOOOOOOOOOOO",
"OOOOOOOOOOOOOOOOOOOOOOO",
"OOOOOOOOOOOOOOOOOOOOOOO",
"Ooooooooooooooooooooo O",
"OoXXXXXXXXXXXXXXXXXX. O",
"OoXXXXXXXXXXXXXXXXXX. O",
"OoXXXXXXXXXXXXXXXXXX. O",
"OoXXXXXXXXXXXXXXXXXX. O",
"OoXXXXXXXXXXXXooooXX. O",
"OoXXXXXXXXXXXXoXX XX. O",
"OoXXXXXXXXXXXXo   XX. O",
"OoXXXXXXXXXXXXXXXXXX. O",
"OoXXXXXXXXXXXXXXXXXX. O",
"OoXXXXXXXXXXXXXXXXXX. O",
"OoXXXXXXXXXXXXXXXXXX. O",
"Oo................... O",
"O                     O",
"OOOOOOOOOOOOOOOOOOOOOOO",
"OOOOOOOOOOOOOOOOOOOOOOO",
"OOOOOOOOOOOOOOOOOOOOOOO",
"OOOOOOOOOOOOOOOOOOOOOOO",
"OOOOOOOOOOOOOOOOOOOOOOO"
};
