/* XPM */
static char *tpacker[] = {
/* columns rows colors chars-per-pixel */
"23 23 5 1",
"  c black",
". c #7B7B7B7B7B7B",
"X c gray84",
"o c gray100",
"O c None",
/* pixels */
"OOOOOOOOOOOOOOOOOOOOOOO",
"OOOOOOOOOOOOOOOOOOOOOOO",
"OOOOOOOOOOOOOOOOOOOOOOO",
"OOooooo OOOOOOOOooooo O",
"OOoXXX. OOOOOOOOoXXX. O",
"OOoXXX. OOOOOOOOoXXX. O",
"OOo.... OOOOOOOOo.... O",
"OO      OOOOOOOO      O",
"OOOOOOOOOOOOOOOOOOOOOOO",
"OOOOOOOOOooooo OOOOOOOO",
"OOOOOOOOOoXXX. OOOOOOOO",
"OOOOOOOOOoXXX. OOOOOOOO",
"OOOOOOOOOo.... OOOOOOOO",
"OOOOOOOOO      OOOOOOOO",
"OOOOOOOOOOOOOOOOOOOOOOO",
"OOooooo OOOOOOOOooooo O",
"OOoXXX. OOOOOOOOoXXX. O",
"OOoXXX. OOOOOOOOoXXX. O",
"OOo.... OOOOOOOOo.... O",
"OO      OOOOOOOO      O",
"OOOOOOOOOOOOOOOOOOOOOOO",
"OOOOOOOOOOOOOOOOOOOOOOO",
"OOOOOOOOOOOOOOOOOOOOOOO"
};
