/* XPM */
static char * tsdfdataset_xpm[] = {
"22 23 52 1",
" 	c None",
".	c #080408",
"+	c #000000",
"@	c #000400",
"#	c #000408",
"$	c #C5C6C5",
"%	c #CDCECD",
"&	c #C5C2C5",
"*	c #CDCAD5",
"=	c #C5C6CD",
"-	c #BDBEBD",
";	c #CDC6CD",
">	c #CDCACD",
",	c #CDCEB4",
"'	c #C5CEB4",
")	c #BDBEC5",
"!	c #C5C2CD",
"~	c #C5CABD",
"{	c #C5C2BD",
"]	c #080C00",
"^	c #000010",
"/	c #000008",
"(	c #000410",
"_	c #000810",
":	c #C5CEC5",
"<	c #FFFFFF",
"[	c #FFFAFF",
"}	c #F6F2FF",
"|	c #F6FAFF",
"1	c #EEEEFF",
"2	c #F6F6EE",
"3	c #EEEAFF",
"4	c #DE1C10",
"5	c #FFF2FF",
"6	c #CDCEC5",
"7	c #296929",
"8	c #BDC2C5",
"9	c #000800",
"0	c #000C00",
"a	c #F6F6FF",
"b	c #FFF6FF",
"c	c #BDC2CD",
"d	c #EEF6FF",
"e	c #BDBECD",
"f	c #F6FFFF",
"g	c #E6EEFF",
"h	c #EEE6FF",
"i	c #C5C6D5",
"j	c #080808",
"k	c #C5CAD5",
"l	c #080800",
"m	c #FFFAF6",
" .+++++++@+++@+#++@++ ",
" +$@%&*==-%;>,')!~,{+ ",
" @]++^^^/+@+++@(_/+@@ ",
" +:+<[}[<<>}<|<1<[}<+ ",
" +2@<[[3[<$<<444445<@ ",
" +6@<7777<8<4444444<+ ",
" 920<a}bb<c<44d|b44<+ ",
" +:+|7777<e<<ffg444a9 ",
" +<#<[hb1[i<<a|444a<+ ",
" j$+|7777<ka|<444[[<+ ",
" +<#<[[1b<!<<<44[1<<+ ",
" l$+<7777a=<}}44[<<<+ ",
" +|#<<a<<<)m<[a[<a<[+ ",
" +%+<[<a<[><[[44<<<[# ",
" ++j+++#////^+44+#++# ",
"                      ",
"   44  444  4444      ",
"  4  4 4  4 4         ",
"   4   4  4 444       ",
"    4  4  4 4         ",
"  4  4 4  4 4         ",
"   44  444  4         ",
"                      "};
