/* XPM */
static char *tspinbutton[] = {
/* columns rows colors chars-per-pixel */
"23 23 5 1",
"  c black",
". c #7B7B7B7B7B7B",
"X c gray84",
"o c gray100",
"O c None",
/* pixels */
"OOOOOOOOOOOOOOOOOOOOOOO",
"OOOOOOOOOOOOOOOOOOOOOOO",
"OOOOOOOOOOOOOOOOOOOOOOO",
"OOOOOOOOOOOOOOOOOOOOOOO",
"OOOOOOOOOOOOOOOOOOOOOOO",
"OOOOOOOOOOOOOOOOOOOOOOO",
"OOOOOOOOOOOOOOOOOOOOOOO",
"OO                   OO",
"OO ooooooooooo ooooo OO",
"OO ooooooooooo oX X. OO",
"OO ooooooooooo o   . OO",
"OO ooooooooooo ooooo OO",
"OO ooooooooooo o   . OO",
"OO ooooooooooo oX X. OO",
"OO ooooooooooo ..... OO",
"OO                   OO",
"OOOOOOOOOOOOOOOOOOOOOOO",
"OOOOOOOOOOOOOOOOOOOOOOO",
"OOOOOOOOOOOOOOOOOOOOOOO",
"OOOOOOOOOOOOOOOOOOOOOOO",
"OOOOOOOOOOOOOOOOOOOOOOO",
"OOOOOOOOOOOOOOOOOOOOOOO",
"OOOOOOOOOOOOOOOOOOOOOOO"
};
