/* XPM */
static char *ttable[] = {
/* columns rows colors chars-per-pixel */
"23 23 5 1",
"  c black",
". c #7B7B7B7B7B7B",
"X c gray84",
"o c gray100",
"O c None",
/* pixels */
"OOOOOOOOOOOOOOOOOOOOOOO",
"Ooooooooooo ooooooooo O",
"OoXXXXXXXX. oXXXXXXX. O",
"OoXXXXXXXX. oXXXXXXX. O",
"OoXXXXXXXX. oXXXXXXX. O",
"OoXXXXXXXX. oXXXXXXX. O",
"Oo......... o........ O",
"O                     O",
"Ooooooooooo ooooooooo O",
"OoXXXXXXXX. oXXXXXXX. O",
"OoXXXXXXXX. oXXXXXXX. O",
"OoXXXXXXXX. oXXXXXXX. O",
"OoXXXXXXXX. oXXXXXXX. O",
"Oo......... o........ O",
"O                     O",
"Ooooooooooo ooooooooo O",
"OoXXXXXXXX. oXXXXXXX. O",
"OoXXXXXXXX. oXXXXXXX. O",
"OoXXXXXXXX. oXXXXXXX. O",
"OoXXXXXXXX. oXXXXXXX. O",
"Oo......... o........ O",
"O                     O",
"OOOOOOOOOOOOOOOOOOOOOOO"
};
