/* XPM */
static char *ttogglebutton[] = {
/* columns rows colors chars-per-pixel */
"23 23 5 1",
"  c black",
". c #7B7B7B7B7B7B",
"X c #C5C5C2C2C5C5",
"o c gray100",
"O c None",
/* pixels */
"OOOOOOOOOOOOOOOOOOOOOOO",
"OOOOOOOOOOOOOOOOOOOOOOO",
"OOOOOOOOOOOOOOOOOOOOOOO",
"OOOOOOOOOOOOOOOOOOOOOOO",
"OO..................oOO",
"OO.                 oOO",
"OO. XXXXXXXXXXXXXXXXoOO",
"OO. XXXXXXXXXXXXXXXXoOO",
"OO. XXXXXXXXXXXXXXXXoOO",
"OO. XXXX  XX XX XXXXoOO",
"OO. XXX XX X .X XXXXoOO",
"OO. XXX XX X  X XXXXoOO",
"OO. XXX XX X X  XXXXoOO",
"OO. XXX XX X X. XXXXoOO",
"OO. XXXX  XX XX XXXXoOO",
"OO. XXXXXXXXXXXXXXXXoOO",
"OO. XXXXXXXXXXXXXXXXoOO",
"OO. XXXXXXXXXXXXXXXXoOO",
"OOoooooooooooooooooooOO",
"OOOOOOOOOOOOOOOOOOOOOOO",
"OOOOOOOOOOOOOOOOOOOOOOO",
"OOOOOOOOOOOOOOOOOOOOOOO",
"OOOOOOOOOOOOOOOOOOOOOOO"
};
