/* XPM */
static char *ttoolbutton[] = {
/* columns rows colors chars-per-pixel */
"23 23 5 1",
"  c black",
". c #7B7B7B7B7B7B",
"X c gray84",
"o c gray100",
"O c None",
/* pixels */
"OOOOOOOOOOOOOOOOOOOOOOO",
"OOooooooooooooooooooo O",
"OOoXXXXXXXXXXXXXXXXX. O",
"OOoXoooo oooo oooo X. O",
"OOoXoXXX oXXX oXXX X. O",
"OOoXoXXX oXXX oXXX X. O",
"OOoXo    o    o    X. O",
"OOoXXXXXXXXXXXXXXXXX. O",
"OOo.................. O",
"OO                    O",
"OOOOOOOOOOOOOOOOOOOOOOO",
"OOOOOOOOOOOOOOOOOOOOOOO",
"OOOOOOOOoooooooooooo OO",
"OOOOOOOOoXXXXXXXXXX. OO",
"OOOOOOOOoXX XX X XX. OO",
"OOOOOOOOoX X X  XXX. OO",
"OOOOOOOOoX X X  XXX. OO",
"OOOOOOOOoXX XX X XX. OO",
"OOOOOOOOoXXXXXXXXXX. OO",
"OOOOOOOOo........... OO",
"OOOOOOOO             OO",
"OOOOOOOOOOOOOOOOOOOOOOO",
"OOOOOOOOOOOOOOOOOOOOOOO"
};
