/* XPM */
static char *ttreeview[] = {
/* columns rows colors chars-per-pixel */
"23 23 6 1",
"  c black",
". c #7B7B7B7B7B7B",
"X c #000080800000",
"o c cyan",
"O c yellow",
"+ c None",
/* pixels */
"+++++++++++++++++++++++",
"++   ++++++++++++++++++",
"++ o +......+++++++++++",
"++   ++++++++++++++++++",
"+++ +++++++++++++++++++",
"+++ ++   ++++++++++++++",
"+++    O +......+++++++",
"+++ ++   ++++++++++++++",
"+++ +++ +++++++++++++++",
"+++ +++ ++   ++++++++++",
"+++ +++    X +......+++",
"+++ +++ ++   ++++++++++",
"+++ +++ +++++++++++++++",
"+++ +++ ++   ++++++++++",
"+++ +++    X +......+++",
"+++ ++++++   ++++++++++",
"+++ +++++++++++++++++++",
"+++ ++   ++++++++++++++",
"+++    O +......+++++++",
"++++++   ++++++++++++++",
"+++++++ +++++++++++++++",
"+++++++ +++++++++++++++",
"+++++++++++++++++++++++"
};
