/* XPM */
static char *tvbuttonbox[] = {
/* columns rows colors chars-per-pixel */
"23 23 5 1",
"  c black",
". c #7B7B7B7B7B7B",
"X c gray84",
"o c gray100",
"O c None",
/* pixels */
"OOOOOOOOOOOOOOOOOOOOOOO",
"OOOOOOOOOOOOOOOOOOOOOOO",
"OOOOOOOOOOOOOOOOOOOOOOO",
"OOOOOOOOOooooo OOOOOOOO",
"OOOOOOOOOoXXX. OOOOOOOO",
"OOOOOOOOOoXXX. OOOOOOOO",
"OOOOOOOOOo.... OOOOOOOO",
"OOOOOOOOO      OOOOOOOO",
"OOOOOOOOOOOOOOOOOOOOOOO",
"OOOOOOOOOooooo OOOOOOOO",
"OOOOOOOOOoXXX. OOOOOOOO",
"OOOOOOOOOoXXX. OOOOOOOO",
"OOOOOOOOOo.... OOOOOOOO",
"OOOOOOOOO      OOOOOOOO",
"OOOOOOOOOOOOOOOOOOOOOOO",
"OOOOOOOOOooooo OOOOOOOO",
"OOOOOOOOOoXXX. OOOOOOOO",
"OOOOOOOOOoXXX. OOOOOOOO",
"OOOOOOOOOo.... OOOOOOOO",
"OOOOOOOOO      OOOOOOOO",
"OOOOOOOOOOOOOOOOOOOOOOO",
"OOOOOOOOOOOOOOOOOOOOOOO",
"OOOOOOOOOOOOOOOOOOOOOOO"
};
