/* XPM */
static char *tvscale[] = {
/* columns rows colors chars-per-pixel */
"23 23 6 1",
"  c black",
". c #7B7B7B7B7B7B",
"X c gray84",
"o c gray87",
"O c gray100",
"+ c None",
/* pixels */
"+++++++++++++++++++++++",
"+.........+++++++++++++",
"+.       O+++++++++++++",
"+. OOOO oO+++++++++++++",
"+. OXX. oO+++++++++++++",
"+. OXX. oO++  +++++  ++",
"+. OXX. oO+ ++ +++ ++ +",
"+. O... oO+ ++ +++ ++ +",
"+. OXX. oO+ ++ +++ ++ +",
"+. OXX. oO+ ++ +++ ++ +",
"+. O... oO++  ++ ++  ++",
"+.      oO+++++++++++++",
"+. XXXXXoO+++++++++++++",
"+. XXXXXoO+++++++++++++",
"+. XXXXXoO+++++++++++++",
"+. XXXXXoO+++++++++++++",
"+. XXXXXoO+++++++++++++",
"+. XXXXXoO+++++++++++++",
"+. XXXXXoO+++++++++++++",
"+. XXXXXoO+++++++++++++",
"+. ooooooO+++++++++++++",
"+.OOOOOOOO+++++++++++++",
"+++++++++++++++++++++++"
};
