/* XPM */
static char * tvscrollbar_xpm[] = {
"23 23 5 1",
" 	c None",
".	c #000000",
"+	c #9C9C9C",
"@	c #FFFFFF",
"#	c #D6D6D6",
"                       ",
"      .........        ",
"      .+++@+++@        ",
"      .++@#.++@        ",
"      .+@###.+@        ",
"      .@#####.@        ",
"      ........@        ",
"      .+++++++@        ",
"      .@@@@@@.@        ",
"      .@#####.@        ",
"      .@#####.@        ",
"      .@#####.@        ",
"      .@#####.@        ",
"      .@#####.@        ",
"      .@......@        ",
"      .+++++++@        ",
"      .@@@@@@@@        ",
"      .@#####.@        ",
"      .+@###.+@        ",
"      .++@#.++@        ",
"      .+++.+++@        ",
"      @@@@@@@@@        ",
"                       "};
